<svg xmlns="http://www.w3.org/2000/svg" viewBox="60.2 58 28 28" fill="#d8d8d8">
  <path d="M81.39,63.3c-.88,0-1.59.71-1.59,1.59s.71,1.59,1.59,1.59,1.59-.71,1.59-1.59-.71-1.59-1.59-1.59Z"/>
  <path d="M74.33,65.33c-3.68,0-6.67,2.99-6.67,6.67s2.99,6.67,6.67,6.67,6.67-2.99,6.67-6.67-2.99-6.67-6.67-6.67ZM74.33,76.27c-2.36,0-4.27-1.92-4.27-4.27s1.92-4.27,4.27-4.27,4.27,1.92,4.27,4.27-1.92,4.27-4.27,4.27Z"/>
  <path d="M79.63,85.54h-10.81c-4.48,0-8.13-3.65-8.13-8.13v-10.81c0-4.48,3.65-8.13,8.13-8.13h10.81c4.48,0,8.13,3.65,8.13,8.13v10.81c0,4.48-3.65,8.13-8.13,8.13ZM68.82,61.01c-3.08,0-5.59,2.51-5.59,5.59v10.81c0,3.08,2.51,5.59,5.59,5.59h10.81c3.08,0,5.59-2.51,5.59-5.59v-10.81c0-3.08-2.51-5.59-5.59-5.59h-10.81Z"/>
</svg>
